<svg width="171" height="64" viewBox="0 0 171 64" fill="none" xmlns="http://www.w3.org/2000/svg">
	<path fill-rule="evenodd" clip-rule="evenodd" d="M42.5126 9.2816V7.20316L36.767 9.33873H36.7561V11.4716H36.767L42.5126 13.6072V11.526L39.5664 10.3997L42.5126 9.27888V9.2816Z" fill="#F7DD43"/>
	<path fill-rule="evenodd" clip-rule="evenodd" d="M75.7922 13.5037V11.4253L78.7358 10.3072L75.7922 9.18905V7.1106L81.5297 9.24618H81.5433V11.3817H81.5297L75.7922 13.5064V13.5037ZM73.3275 4.16977L69.9541 15H71.9564L75.3298 4.16977H73.3275Z" fill="#F7DD43"/>
	<path fill-rule="evenodd" clip-rule="evenodd" d="M50.9543 6.91747C51.5256 7.54317 51.8249 8.3702 51.7895 9.21627V13.8302H49.7872V9.64066C49.8117 9.17274 49.6621 8.7157 49.3683 8.35116C49.0908 8.02742 48.68 7.84787 48.2529 7.86691C46.9987 7.86691 46.3703 8.73746 46.3703 10.4758V13.8302H44.368V6.25639H46.3703V6.93923C47.0069 6.32168 47.8693 5.99251 48.7562 6.03059C49.5832 5.99523 50.383 6.31896 50.9543 6.91747Z" fill="#F7DD43"/>
	<path fill-rule="evenodd" clip-rule="evenodd" d="M54.3413 3V13.8302H56.3436V3H54.3413Z" fill="#F7DD43"/>
	<path fill-rule="evenodd" clip-rule="evenodd" d="M67.6661 13.8302H65.9958L64.358 9.36862L62.704 13.8302H61.0336L58.2261 6.2428H60.3671L61.945 10.7806L63.5718 6.2428H65.1361L66.7629 10.7942L68.3408 6.2428H70.4818L67.6716 13.8302H67.6661Z" fill="#F7DD43"/>
	<path d="M91.0796 17.9981C89.1533 17.9981 87.1295 17.6331 85.5433 16.754V1.24411C87.1046 0.389878 89.1284 2.85548e-05 91.0796 2.85548e-05C93.0307 2.85548e-05 95.0067 0.365035 96.5661 1.24411V7.19505H92.639V3.14558C92.1765 2.95066 91.6147 2.87804 91.0547 2.87804C90.4948 2.87804 89.9807 2.95066 89.4934 3.14558V14.8525C89.9559 15.0475 90.4929 15.1201 91.0547 15.1201C91.6166 15.1201 92.1517 15.0475 92.639 14.8525V10.805H96.5661V16.7559C95.0297 17.6101 93.0059 17.9752 91.0796 18V17.9981Z" fill="#F7DD43"/>
	<path d="M103.931 17.9981C101.858 17.9981 99.8589 17.5585 98.2728 16.6565V1.3167C99.8341 0.439536 101.835 0 103.931 0C106.028 0 107.979 0.414693 109.54 1.3167V16.6565C108.004 17.5585 105.98 17.9732 103.931 17.9981ZM105.615 3.19524C105.152 3.00031 104.591 2.90285 103.908 2.90285C103.226 2.90285 102.689 3.00031 102.225 3.19524V14.7799C102.687 14.9997 103.249 15.0971 103.908 15.0971C104.568 15.0971 105.128 14.9997 105.615 14.7799V3.19524Z" fill="#F7DD43"/>
	<path d="M116.393 11.4127H115.344V17.7783H111.369V0.219779H116.393C118.784 0.219779 120.588 0.707092 122.002 1.70656V9.92589C120.613 10.9024 118.782 11.4127 116.393 11.4127ZM118.052 3.24303C117.687 2.97548 117.198 2.85318 116.368 2.85318H115.294V8.77927H116.368C117.173 8.77927 117.66 8.65697 118.052 8.41427V3.24303Z" fill="#F7DD43"/>
	<path d="M130.317 17.7783V11.4127H127.391V17.7783H123.441V1.29185C124.88 0.437625 126.904 0 128.855 0C130.806 0 132.805 0.439537 134.244 1.29185V17.7783H130.317ZM130.317 3.04809C129.902 2.85316 129.39 2.7557 128.853 2.7557C128.316 2.7557 127.804 2.85316 127.389 3.04809V8.63211H130.315V3.04809H130.317Z" fill="#F7DD43"/>
	<path d="M14.5137 47.9248H18.8936C18.8057 49.3604 18.4102 50.6348 17.707 51.748C17.0137 52.8613 16.042 53.7305 14.792 54.3555C13.5518 54.9805 12.0576 55.293 10.3096 55.293C8.94238 55.293 7.7168 55.0586 6.63281 54.5898C5.54883 54.1113 4.62109 53.4277 3.84961 52.5391C3.08789 51.6504 2.50684 50.5762 2.10645 49.3164C1.70605 48.0566 1.50586 46.6455 1.50586 45.083V43.6035C1.50586 42.041 1.71094 40.6299 2.12109 39.3701C2.54102 38.1006 3.13672 37.0215 3.9082 36.1328C4.68945 35.2441 5.62207 34.5605 6.70605 34.082C7.79004 33.6035 9.00098 33.3643 10.3389 33.3643C12.1162 33.3643 13.6152 33.6865 14.8359 34.3311C16.0664 34.9756 17.0186 35.8643 17.6924 36.9971C18.376 38.1299 18.7861 39.4189 18.9229 40.8643H14.5283C14.4795 40.0049 14.3086 39.2773 14.0156 38.6816C13.7227 38.0762 13.2783 37.6221 12.6826 37.3193C12.0967 37.0068 11.3154 36.8506 10.3389 36.8506C9.60645 36.8506 8.9668 36.9873 8.41992 37.2607C7.87305 37.5342 7.41406 37.9492 7.04297 38.5059C6.67188 39.0625 6.39355 39.7656 6.20801 40.6152C6.03223 41.4551 5.94434 42.4414 5.94434 43.5742V45.083C5.94434 46.1865 6.02734 47.1582 6.19336 47.998C6.35938 48.8281 6.61328 49.5312 6.95508 50.1074C7.30664 50.6738 7.75586 51.1035 8.30273 51.3965C8.85938 51.6797 9.52832 51.8213 10.3096 51.8213C11.2275 51.8213 11.9844 51.6748 12.5801 51.3818C13.1758 51.0889 13.6299 50.6543 13.9424 50.0781C14.2646 49.502 14.4551 48.7842 14.5137 47.9248ZM30.4512 37.3193L24.6504 55H19.9775L27.9023 33.6719H30.876L30.4512 37.3193ZM35.2705 55L29.4551 37.3193L28.9863 33.6719H31.9893L39.958 55H35.2705ZM35.0068 47.0605V50.5029H23.7422V47.0605H35.0068ZM55.6465 51.5723V55H44.9092V51.5723H55.6465ZM46.3301 33.6719V55H41.9355V33.6719H46.3301ZM72.4775 51.5723V55H61.125V51.5723H72.4775ZM62.5605 33.6719V55H58.166V33.6719H62.5605ZM70.998 42.3584V45.6982H61.125V42.3584H70.998ZM72.4629 33.6719V37.1143H61.125V33.6719H72.4629ZM92.3994 33.6719V55H88.0049L79.4355 40.7031V55H75.041V33.6719H79.4355L88.0195 47.9834V33.6719H92.3994ZM102.771 55H98.127L98.1562 51.5723H102.771C103.923 51.5723 104.895 51.3135 105.686 50.7959C106.477 50.2686 107.072 49.502 107.473 48.4961C107.883 47.4902 108.088 46.2744 108.088 44.8486V43.8086C108.088 42.7148 107.971 41.7529 107.736 40.9229C107.512 40.0928 107.175 39.3945 106.726 38.8281C106.276 38.2617 105.725 37.8369 105.07 37.5537C104.416 37.2607 103.664 37.1143 102.814 37.1143H98.0391V33.6719H102.814C104.24 33.6719 105.544 33.916 106.726 34.4043C107.917 34.8828 108.947 35.5713 109.816 36.4697C110.686 37.3682 111.354 38.4424 111.823 39.6924C112.302 40.9326 112.541 42.3145 112.541 43.8379V44.8486C112.541 46.3623 112.302 47.7441 111.823 48.9941C111.354 50.2441 110.686 51.3184 109.816 52.2168C108.957 53.1055 107.927 53.7939 106.726 54.2822C105.534 54.7607 104.216 55 102.771 55ZM100.617 33.6719V55H96.2227V33.6719H100.617ZM124.084 37.3193L118.283 55H113.61L121.535 33.6719H124.509L124.084 37.3193ZM128.903 55L123.088 37.3193L122.619 33.6719H125.622L133.591 55H128.903ZM128.64 47.0605V50.5029H117.375V47.0605H128.64ZM135.568 33.6719H143.522C145.153 33.6719 146.555 33.916 147.727 34.4043C148.908 34.8926 149.816 35.6152 150.451 36.5723C151.086 37.5293 151.403 38.7061 151.403 40.1025C151.403 41.2451 151.208 42.2266 150.817 43.0469C150.437 43.8574 149.895 44.5361 149.191 45.083C148.498 45.6201 147.683 46.0498 146.745 46.3721L145.354 47.1045H138.439L138.41 43.6768H143.552C144.323 43.6768 144.963 43.54 145.471 43.2666C145.979 42.9932 146.359 42.6123 146.613 42.124C146.877 41.6357 147.009 41.0693 147.009 40.4248C147.009 39.7412 146.882 39.1504 146.628 38.6523C146.374 38.1543 145.988 37.7734 145.471 37.5098C144.953 37.2461 144.304 37.1143 143.522 37.1143H139.963V55H135.568V33.6719ZM147.492 55L142.629 45.4932L147.272 45.4639L152.194 54.7949V55H147.492ZM157.014 33.6719L161.467 43.3984L165.92 33.6719H170.71L163.693 47.2363V55H159.24V47.2363L152.209 33.6719H157.014Z" fill="url(#paint0_linear_122_251)"/>
	<defs>
	<linearGradient id="paint0_linear_122_251" x1="85.5" y1="26" x2="85.5" y2="64" gradientUnits="userSpaceOnUse">
	<stop stop-color="white"/>
	<stop offset="1" stop-color="#D9D9D9" stop-opacity="0.8"/>
	</linearGradient>
	</defs>
	</svg>
	